<svg height="50" viewBox="0 0 39.687 13.229" width="150" xmlns="http://www.w3.org/2000/svg"><path d="M37.315 7.194v.91h-.944v-.91z" fill="#e61284"/><path d="M6.778 6.496 8.67 5.431v-2.13L6.778 4.367z" fill="#7b124c"/><path d="M4.068 10.222 2.174 9.157v-2.13l1.894 1.065zM4.064 7.688 2.171 6.623v-2.13l1.893 1.065z" fill="#b31ce7"/><path d="M4.064 5.176 2.171 4.112v-2.13l1.893 1.065zM6.388 11.53l-1.893-1.066v-2.13L6.388 9.4z" fill="#e61284"/><path d="M10.803 1.7 8.91 2.765 7.016 1.7z" fill="#58168b"/><path d="M6.388 9.001 4.495 7.936v-2.13l1.893 1.065zM6.388 6.473 4.495 5.408v-2.13l1.893 1.065z" fill="#e61284"/><g fill="#5b1096"><path d="M8.478 2.931 6.585 1.866 4.692 2.931l1.893 1.065zM2.446 1.7 4.34 2.765 6.233 1.7zM9.098 10.246l1.893-1.065V7.05L9.098 8.116zM9.101 7.712l1.893-1.065v-2.13L9.101 5.582z"/></g><path d="m9.101 5.2 1.893-1.065v-2.13L9.101 3.07zM6.778 11.553l1.893-1.065v-2.13L6.778 9.423zM6.778 9.025 8.67 7.96V5.83L6.778 6.895z" fill="#7b124c"/><g fill="#080c1d"><path d="M18.46 4.204v.97h-1.037V8.11h-1.225V5.175h-1.026v-.971zM20.751 8.11l-.74-1.402V8.11h-1.224V4.204h1.82q.475 0 .812.17.336.166.502.459.17.287.17.65 0 .392-.22.696-.215.303-.623.436l.85 1.495zm-.74-2.218h.486q.177 0 .265-.077.088-.083.088-.254 0-.154-.093-.243-.089-.088-.26-.088h-.485zM23.708 4.204V8.11h-1.225V4.204zM25.485 7.183h1.181v.927h-2.405V4.204h1.224zM28.955 4.138q.551 0 1.01.259.457.254.722.712.27.457.27 1.031 0 .574-.27 1.032-.265.458-.728.717-.458.26-1.004.26-.552 0-1.015-.26-.458-.26-.729-.717-.27-.458-.27-1.032 0-.574.27-1.031.27-.458.729-.712.463-.26 1.015-.26zm0 1.13q-.37 0-.569.238-.198.232-.198.634 0 .397.198.635.199.231.569.231.364 0 .562-.231.199-.238.199-.635 0-.402-.199-.634-.198-.237-.562-.237zM35.14 8.11h-1.225l-1.297-1.964V8.11h-1.224V4.204h1.224L33.915 6.2V4.204h1.225z"/></g></svg>